<svg width="1436" height="567" xmlns="http://www.w3.org/2000/svg" xmlns:xlink="http://www.w3.org/1999/xlink" xml:space="preserve" overflow="hidden"><defs><filter id="fx0" x="-10%" y="-10%" width="120%" height="120%" filterUnits="userSpaceOnUse" primitiveUnits="userSpaceOnUse"><feComponentTransfer color-interpolation-filters="sRGB"><feFuncR type="discrete" tableValues="0.498039 0.498039"/><feFuncG type="discrete" tableValues="0.498039 0.498039"/><feFuncB type="discrete" tableValues="0.498039 0.498039"/><feFuncA type="linear" slope="1" intercept="0"/></feComponentTransfer><feGaussianBlur stdDeviation="1.78971 1.78971"/></filter><clipPath id="clip1"><rect x="1482" y="421" width="1436" height="567"/></clipPath><clipPath id="clip2"><rect x="-2" y="-2" width="869" height="350"/></clipPath><clipPath id="clip3"><rect x="0" y="0" width="866" height="347"/></clipPath></defs><g clip-path="url(#clip1)" transform="translate(-1482 -421)"><g clip-path="url(#clip2)" filter="url(#fx0)" transform="translate(1781 563)"><g clip-path="url(#clip3)"><path d="M538.369 291.183 542.16 294.191 627.647 294.191 621.786 291.183ZM386.276 163.681 383.871 164.48C377.32 166.397 365.68 168.45 348.95 170.641L342.135 171.499 342.135 260.196 344.928 263.813 344.928 177.43 352.36 176.366C364.417 175.094 374.391 173.382 382.283 171.229L388.235 169.329 388.209 169.283ZM100.854 154.543 100.854 254.878 104.936 259.897 104.936 157.98 146.858 157.98 142.765 154.543ZM185.717 97.0083 199.897 102.104 199.897 199.727 185.717 194.806ZM593.99 70.841 593.99 217.791C593.99 240.307 595.994 255.494 600.001 263.351 601.003 265.315 602.159 267.141 603.469 268.828L605.02 270.636 602.253 265.845C598.607 258.45 596.783 249.874 596.783 240.118L596.783 224.531 596.783 100.869ZM377.134 51.4178C369.089 51.4178 363.08 51.9012 359.108 52.868L359.108 143.725 365.859 142.362C387.835 137.475 404.341 130.551 415.38 121.588 427.995 111.345 434.303 98.1956 434.303 82.1405 434.303 78.5844 433.954 75.178 433.256 71.9215L432.972 70.8876 431.852 70.2387C419.646 63.2493 410.29 58.4577 403.785 55.8641 396.351 52.8999 387.467 51.4178 377.134 51.4178ZM806.256 44.4091 803.678 47.5573 803.678 260.491 806.256 263.545ZM100.854 38.3224 100.854 128.332 104.936 128.332 104.936 41.5417 114.825 41.1892C124.583 40.7036 134.011 40.4608 143.111 40.4608 162.174 40.4608 176.897 44.493 187.279 52.5575L188.703 53.7696 186.637 51.6226C184.329 49.3992 182.127 47.6368 180.032 46.3354 171.652 41.1299 157.184 38.5272 136.629 38.5272L124.607 38.742 103.999 38.5305ZM374.858 32.5116C360.965 32.5116 350.057 34.6566 342.135 38.9468L342.135 145.67C343.088 145.67 344.019 145.583 344.928 145.409L344.928 42.0117C355.247 39.259 365.936 37.8827 376.993 37.8827 398.855 37.8827 415.62 44.5363 427.288 57.8436L427.997 58.717 427.758 58.2784C425.139 54.0678 421.736 50.1942 417.547 46.6577 406.376 37.2269 392.147 32.5116 374.858 32.5116ZM256.535 21.5545 264.998 29.1748C244.619 54.1727 231.385 77.1991 225.295 98.2537L213.848 92.9464C219.405 68.179 233.634 44.3817 256.535 21.5545ZM540.833 12.3163 658.571 12.3163 628.03 45.4861 683.597 216.233 686.417 202.057 632.491 44.328 664.516 21.1651 673.318 29.3124 646.986 49.2291 692.782 190.113 742.659 45.2176 716.958 12.3163 832.537 12.3163 806.47 44.1483 835.552 25.17 844.24 33.3105 820.436 52.304 820.436 260.921 857.09 308.371 738.208 308.371 733.582 294.191 835.431 294.191 820.106 279.953 829.587 291.183 723.91 291.183 753.19 260.256 753.19 124.774 693.916 308.371 667.242 308.371 664.51 294.191 684.074 294.191 753.19 101.721 753.19 74.631 682.338 290.969 661.267 290.969 611.178 120.98 611.178 228.113C611.178 242.738 612.067 252.844 613.845 258.431 615.623 264.019 620.055 270.423 627.14 277.645L646.986 308.371 529.997 308.371 527.131 301.368 519.4 304.067C495.166 312.96 472.721 323.831 452.064 336.68L447.083 338.916 438.734 330.899C467.138 310.995 495.716 297.659 524.467 290.891 484.533 266.932 452.75 224.749 429.12 164.342L427.78 157.171C470.657 140.581 492.096 116.548 492.096 85.0711 492.096 72.2588 486.596 55.802 475.597 35.7007 495.62 50.2809 505.631 68.142 505.631 89.284 505.631 123.502 485.074 148.84 443.961 165.298 452.523 191.272 467.829 217.827 489.877 244.962 500.245 257.706 513.028 270.431 528.226 283.135L529.692 284.298 531.233 281.515C546.974 272.866 557.144 264.493 561.742 256.397 566.34 248.301 568.639 235.152 568.639 216.948L568.639 44.6301ZM21.4992 12.3163 248.888 12.3163C239.614 28.3803 233.191 39.5774 229.621 45.9074 226.05 52.2375 221.401 62.6624 215.674 77.1823L210.29 84.0808C207.342 79.0912 204.501 74.5627 201.766 70.4953L198.834 66.2998 199.597 67.6785C200.202 68.8882 200.762 70.1382 201.28 71.4285 189.931 64.4841 180.475 59.9142 172.91 57.7188 165.346 55.5233 153.405 54.4256 137.089 54.4256 131.299 54.4256 125.308 54.6987 119.115 55.2447L119.115 128.332 144.491 128.332 184.428 92.7786 184.428 189.532 160.713 169.616 162.299 172.16 119.115 172.16 119.115 256.805 156.189 308.371 27.7196 308.371 20.0457 294.191 135.585 294.191 117.667 275.552 127.934 288.176 15.6011 288.176 49.9358 254.405 49.9358 170.139C43.2958 170.139 35.2201 174.214 25.7088 182.365L17.4977 173.674C27.2485 161.795 38.0612 155.855 49.9358 155.855L49.9358 154.17C49.5285 154.132 48.8549 154.113 47.9149 154.113 36.2238 154.113 24.507 159.455 12.7645 170.139L8.22926 162.68C15.299 141.654 29.2011 130.33 49.9358 128.708L49.9358 45.664ZM381.404 8.66391C412.069 8.66391 437.575 15.479 457.922 29.1093 478.27 42.7396 488.444 60.2611 488.444 81.6738 488.444 99.1433 481.782 114.507 468.458 127.766 455.134 141.025 438.205 150.178 417.669 155.224 427.067 178.721 439.983 202.951 456.418 227.917 472.854 252.882 489.779 273.567 507.192 289.972L500.931 293.51C480.373 300.528 460.211 310.456 440.443 323.292L431.614 326.065 429.687 316.884C421.184 265.496 409.587 221.644 394.897 185.328L392.422 179.376 386.648 182.272C379.517 185.26 369.855 187.753 357.661 189.75L359.108 189.569 359.108 263.025 396.182 308.371 280.401 308.371 275.211 294.191 375.365 294.191 354.189 275.809 366.06 291.183 264.257 291.183 291.647 259.893 291.647 196.381 283.619 198.382C279.939 199.401 276.43 200.478 273.093 201.614L268.138 202.292 264.257 191.449C272.477 187.877 278.409 185.651 282.053 184.772L291.647 182.414 291.647 179.119C286.768 179.119 278.353 180.884 266.403 184.413L258.359 185.44C258.677 179.948 260.174 173.409 262.851 165.822 263.131 165.265 264.077 162.246 265.691 156.765 265.852 156.275 266.419 154.613 267.393 151.78 275.235 152.19 281.17 152.394 285.198 152.394 288.94 152.394 291.018 152.369 291.432 152.317L291.432 54.8956C286.54 51.9169 280.776 49.1362 274.14 46.5536L269.736 42.7401C305.08 20.0226 342.303 8.66391 381.404 8.66391Z" stroke="#FFFFFF" stroke-width="3" stroke-linejoin="round" stroke-miterlimit="10" fill-rule="evenodd"/></g></g><path d="M2307.87 842.688 2311.66 845.695 2397.15 845.695 2391.29 842.688ZM2155.78 715.185 2153.37 715.984C2146.82 717.901 2135.18 719.955 2118.45 722.145L2111.64 723.003 2111.64 811.7 2114.43 815.317 2114.43 728.934 2121.86 727.87C2133.92 726.598 2143.9 724.886 2151.79 722.734L2157.74 720.833 2157.71 720.787ZM1870.36 706.047 1870.36 806.382 1874.44 811.401 1874.44 709.484 1916.36 709.484 1912.27 706.047ZM1955.22 648.512 1969.4 653.608 1969.4 751.231 1955.22 746.31ZM2363.49 622.345 2363.49 769.295C2363.49 791.811 2365.5 806.998 2369.51 814.855 2370.51 816.82 2371.66 818.645 2372.97 820.332L2374.52 822.14 2371.76 817.349C2368.11 809.954 2366.29 801.378 2366.29 791.622L2366.29 776.036 2366.29 652.373ZM2146.64 602.922C2138.59 602.922 2132.58 603.405 2128.61 604.372L2128.61 695.229 2135.36 693.866C2157.34 688.979 2173.85 682.055 2184.88 673.092 2197.5 662.849 2203.81 649.7 2203.81 633.645 2203.81 630.088 2203.46 626.682 2202.76 623.426L2202.48 622.392 2201.36 621.743C2189.15 614.753 2179.79 609.962 2173.29 607.368 2165.85 604.404 2156.97 602.922 2146.64 602.922ZM2575.76 595.913 2573.18 599.061 2573.18 811.995 2575.76 815.049ZM1870.36 589.827 1870.36 679.836 1874.44 679.836 1874.44 593.046 1884.33 592.693C1894.09 592.208 1903.52 591.965 1912.61 591.965 1931.68 591.965 1946.4 595.997 1956.78 604.062L1958.21 605.274 1956.14 603.127C1953.83 600.903 1951.63 599.141 1949.54 597.839 1941.16 592.634 1926.69 590.031 1906.13 590.031L1894.11 590.246 1873.5 590.035ZM2144.36 584.016C2130.47 584.016 2119.56 586.161 2111.64 590.451L2111.64 697.174C2112.59 697.174 2113.52 697.087 2114.43 696.913L2114.43 593.516C2124.75 590.763 2135.44 589.387 2146.5 589.387 2168.36 589.387 2185.12 596.04 2196.79 609.348L2197.5 610.221 2197.26 609.783C2194.64 605.572 2191.24 601.698 2187.05 598.162 2175.88 588.731 2161.65 584.016 2144.36 584.016ZM2026.04 573.059 2034.5 580.679C2014.12 605.677 2000.89 628.703 1994.8 649.758L1983.35 644.451C1988.91 619.683 2003.14 595.886 2026.04 573.059ZM2310.34 563.82 2428.08 563.82 2397.53 596.99 2453.1 767.737 2455.92 753.561 2402 595.832 2434.02 572.669 2442.82 580.817 2416.49 600.733 2462.29 741.617 2512.16 596.722 2486.46 563.82 2602.04 563.82 2575.97 595.652 2605.06 576.674 2613.74 584.815 2589.94 603.808 2589.94 812.425 2626.59 859.875 2507.71 859.875 2503.09 845.695 2604.94 845.695 2589.61 831.457 2599.09 842.688 2493.41 842.688 2522.69 811.76 2522.69 676.278 2463.42 859.875 2436.75 859.875 2434.01 845.695 2453.58 845.695 2522.69 653.226 2522.69 626.135 2451.84 842.473 2430.77 842.473 2380.68 672.484 2380.68 779.617C2380.68 794.242 2381.57 804.349 2383.35 809.936 2385.13 815.523 2389.56 821.927 2396.64 829.149L2416.49 859.875 2299.5 859.875 2296.63 852.872 2288.9 855.571C2264.67 864.464 2242.23 875.335 2221.57 888.184L2216.59 890.42 2208.24 882.403C2236.64 862.499 2265.22 849.163 2293.97 842.395 2254.04 818.436 2222.25 776.253 2198.62 715.846L2197.28 708.675C2240.16 692.085 2261.6 668.052 2261.6 636.575 2261.6 623.763 2256.1 607.306 2245.1 587.205 2265.12 601.785 2275.14 619.646 2275.14 640.788 2275.14 675.006 2254.58 700.345 2213.46 716.802 2222.03 742.776 2237.33 769.331 2259.38 796.466 2269.75 809.211 2282.53 821.935 2297.73 834.639L2299.2 835.802 2300.74 833.02C2316.48 824.37 2326.65 815.997 2331.25 807.901 2335.84 799.805 2338.14 786.656 2338.14 768.452L2338.14 596.134ZM1791 563.82 2018.39 563.82C2009.12 579.884 2002.7 591.081 1999.12 597.411 1995.55 603.742 1990.91 614.167 1985.18 628.686L1979.79 635.585C1976.85 630.595 1974 626.067 1971.27 621.999L1968.34 617.804 1969.1 619.183C1969.71 620.392 1970.27 621.642 1970.78 622.933 1959.44 615.988 1949.98 611.418 1942.41 609.223 1934.85 607.027 1922.91 605.93 1906.59 605.93 1900.8 605.93 1894.81 606.203 1888.62 606.749L1888.62 679.836 1913.99 679.836 1953.93 644.283 1953.93 741.036 1930.22 721.12 1931.8 723.664 1888.62 723.664 1888.62 808.309 1925.69 859.875 1797.22 859.875 1789.55 845.695 1905.09 845.695 1887.17 827.056 1897.44 839.68 1785.11 839.68 1819.44 805.909 1819.44 721.643C1812.8 721.643 1804.72 725.719 1795.21 733.869L1787 725.178C1796.75 713.299 1807.57 707.359 1819.44 707.359L1819.44 705.674C1819.03 705.636 1818.36 705.617 1817.42 705.617 1805.73 705.617 1794.01 710.959 1782.27 721.643L1777.73 714.184C1784.8 693.159 1798.71 681.834 1819.44 680.212L1819.44 597.168ZM2150.91 560.168C2181.57 560.168 2207.08 566.983 2227.43 580.613 2247.77 594.244 2257.95 611.765 2257.95 633.178 2257.95 650.647 2251.29 666.012 2237.96 679.27 2224.64 692.529 2207.71 701.682 2187.17 706.728 2196.57 730.225 2209.49 754.456 2225.92 779.421 2242.36 804.387 2259.28 825.071 2276.7 841.476L2270.44 845.014C2249.88 852.032 2229.71 861.96 2209.95 874.797L2201.12 877.569 2199.19 868.388C2190.69 817 2179.09 773.148 2164.4 736.832L2161.93 730.881 2156.15 733.776C2149.02 736.764 2139.36 739.257 2127.16 741.254L2128.61 741.073 2128.61 814.53 2165.69 859.875 2049.91 859.875 2044.72 845.695 2144.87 845.695 2123.69 827.313 2135.56 842.688 2033.76 842.688 2061.15 811.398 2061.15 747.885 2053.12 749.886C2049.44 750.905 2045.93 751.982 2042.6 753.118L2037.64 753.796 2033.76 742.953C2041.98 739.381 2047.91 737.156 2051.56 736.276L2061.15 733.918 2061.15 730.623C2056.27 730.623 2047.86 732.388 2035.91 735.917L2027.86 736.944C2028.18 731.452 2029.68 724.913 2032.35 717.326 2032.63 716.769 2033.58 713.75 2035.19 708.269 2035.36 707.779 2035.92 706.117 2036.9 703.284 2044.74 703.694 2050.67 703.898 2054.7 703.898 2058.44 703.898 2060.52 703.873 2060.94 703.821L2060.94 606.4C2056.04 603.421 2050.28 600.64 2043.64 598.058L2039.24 594.244C2074.58 571.527 2111.81 560.168 2150.91 560.168Z" stroke="#FFFFFF" stroke-width="3" stroke-linejoin="round" stroke-miterlimit="10" fill-rule="evenodd"/><text fill="#000000" fill-opacity="0" font-family="Arial,Arial_MSFontService,sans-serif" font-size="330.252" x="1777.73" y="849.138">FRM</text></g></svg>